<svg width="32" height="32" viewBox="0 0 32 32" fill="none" xmlns="http://www.w3.org/2000/svg">
<rect width="32" height="32" rx="16" fill="#3E416C"/>
<path fill-rule="evenodd" clip-rule="evenodd" d="M16 7.9375C12.0434 7.9375 8.6875 11.2072 8.6875 15.1943C8.6875 17.2362 9.5514 18.9431 10.7627 20.3519C11.9687 21.7546 13.5388 22.8859 15.0087 23.7958L15.0183 23.8018L15.0282 23.8074C15.3247 23.9747 15.6595 24.0625 16 24.0625C16.3405 24.0625 16.6753 23.9747 16.9718 23.8074L16.9804 23.8025L16.9888 23.7973C18.4641 22.8946 20.0344 21.7597 21.24 20.3528C22.4502 18.9404 23.3125 17.2294 23.3125 15.1943C23.3125 11.2072 19.9566 7.9375 16 7.9375ZM16 12.25C14.3431 12.25 13 13.5931 13 15.25C13 16.9069 14.3431 18.25 16 18.25C17.6569 18.25 19 16.9069 19 15.25C19 13.5931 17.6569 12.25 16 12.25Z" fill="white"/>
</svg>
